{
  "accessors": [
    {
      "bufferView": 2,
      "componentType": 5126,
      "count": 5631,
      "max": [
        0.6627860069274902,
        0.8756139874458313,
        0.6624889969825745
      ],
      "min": [
        -0.6627870202064514,
        -0.47668901085853577,
        -0.6624900102615356
      ],
      "type": "VEC3"
    },
    {
      "bufferView": 2,
      "byteOffset": 67572,
      "componentType": 5126,
      "count": 5631,
      "max": [
        1.0,
        1.0,
        0.999971330165863
      ],
      "min": [
        -0.999971330165863,
        -1.0,
        -0.999971330165863
      ],
      "type": "VEC3"
    },
    {
      "bufferView": 3,
      "componentType": 5126,
      "count": 5631,
      "max": [
        1.0,
        1.0,
        1.0,
        1.0
      ],
      "min": [
        -1.0,
        -1.0,
        -1.0,
        -1.0
      ],
      "type": "VEC4"
    },
    {
      "bufferView": 1,
      "componentType": 5126,
      "count": 5631,
      "max": [
        0.965470016002655,
        0.983735978603363
      ],
      "min": [
        0.028595000505447388,
        0.017782000824809074
      ],
      "type": "VEC2"
    },
    {
      "bufferView": 0,
      "componentType": 5125,
      "count": 31548,
      "type": "SCALAR"
    }
  ],
  "asset": {
    "extras": {
      "author": "Anfex (https://sketchfab.com/Anfex)",
      "license": "CC-BY-4.0 (http://creativecommons.org/licenses/by/4.0/)",
      "source": "https://sketchfab.com/3d-models/stylized-apple-c2032bda2b474105a717e81ebde2b68c",
      "title": "Stylized Apple"
    },
    "generator": "Sketchfab-12.68.0",
    "version": "2.0"
  },
  "bufferViews": [
    {
      "buffer": 0,
      "byteLength": 126192,
      "name": "floatBufferViews",
      "target": 34963
    },
    {
      "buffer": 0,
      "byteLength": 45048,
      "byteOffset": 126192,
      "byteStride": 8,
      "name": "floatBufferViews",
      "target": 34962
    },
    {
      "buffer": 0,
      "byteLength": 135144,
      "byteOffset": 171240,
      "byteStride": 12,
      "name": "floatBufferViews",
      "target": 34962
    },
    {
      "buffer": 0,
      "byteLength": 90096,
      "byteOffset": 306384,
      "byteStride": 16,
      "name": "floatBufferViews",
      "target": 34962
    }
  ],
  "buffers": [
    {
      "byteLength": 396480,
      "uri": "scene.bin"
    }
  ],
  "images": [
    {
      "uri": "textures/Merged_Apple8_Merged_baseColor.jpeg"
    },
    {
      "uri": "textures/Merged_Apple8_Merged_metallicRoughness.png"
    },
    {
      "uri": "textures/Merged_Apple8_Merged_normal.png"
    }
  ],
  "materials": [
    {
      "doubleSided": true,
      "name": "Merged_Apple8_Merged",
      "normalTexture": {
        "index": 2
      },
      "occlusionTexture": {
        "index": 1
      },
      "pbrMetallicRoughness": {
        "baseColorTexture": {
          "index": 0
        },
        "metallicRoughnessTexture": {
          "index": 1
        }
      }
    }
  ],
  "meshes": [
    {
      "name": "defaultMaterial",
      "primitives": [
        {
          "attributes": {
            "NORMAL": 1,
            "POSITION": 0,
            "TANGENT": 2,
            "TEXCOORD_0": 3
          },
          "indices": 4,
          "material": 0,
          "mode": 4
        }
      ]
    }
  ],
  "nodes": [
    {
      "children": [
        1
      ],
      "matrix": [
        1.0,
        0.0,
        0.0,
        0.0,
        0.0,
        5.053215392444312e-16,
        -1.0,
        0.0,
        0.0,
        1.0,
        5.053215392444312e-16,
        0.0,
        0.0,
        -2.3702599882824407e-09,
        -3.397801595639294e-09,
        1.0
      ],
      "name": "Sketchfab_model"
    },
    {
      "children": [
        2
      ],
      "matrix": [
        1.0,
        0.0,
        0.0,
        0.0,
        0.0,
        -4.371139006309477e-08,
        0.999999999999999,
        0.0,
        0.0,
        -0.999999999999999,
        -4.371139006309477e-08,
        0.0,
        0.0,
        0.0,
        0.0,
        1.0
      ],
      "name": "Collada visual scene group"
    },
    {
      "children": [
        3
      ],
      "name": "Merged_Apple8_Merged"
    },
    {
      "mesh": 0,
      "name": "defaultMaterial"
    }
  ],
  "samplers": [
    {
      "magFilter": 9729,
      "minFilter": 9987,
      "wrapS": 10497,
      "wrapT": 10497
    }
  ],
  "scene": 0,
  "scenes": [
    {
      "name": "Sketchfab_Scene",
      "nodes": [
        0
      ]
    }
  ],
  "textures": [
    {
      "sampler": 0,
      "source": 0
    },
    {
      "sampler": 0,
      "source": 1
    },
    {
      "sampler": 0,
      "source": 2
    }
  ]
}
