{
  "accessors": [
    {
      "bufferView": 2,
      "componentType": 5126,
      "count": 20156,
      "max": [
        4.7268218994140625,
        15.705177307128906,
        18.805286407470703
      ],
      "min": [
        -6.206038951873779,
        4.72298002243042,
        7.025051116943359
      ],
      "type": "VEC3"
    },
    {
      "bufferView": 2,
      "byteOffset": 241872,
      "componentType": 5126,
      "count": 20156,
      "max": [
        0.9999433755874634,
        0.9998340010643005,
        0.9997756481170654
      ],
      "min": [
        -0.9999922513961792,
        -0.9997904896736145,
        -0.999797523021698
      ],
      "type": "VEC3"
    },
    {
      "bufferView": 1,
      "componentType": 5126,
      "count": 20156,
      "max": [
        0.999983012676239,
        0.8804020285606384
      ],
      "min": [
        0.0,
        3.000000106112566e-06
      ],
      "type": "VEC2"
    },
    {
      "bufferView": 0,
      "componentType": 5125,
      "count": 94563,
      "type": "SCALAR"
    },
    {
      "bufferView": 2,
      "byteOffset": 483744,
      "componentType": 5126,
      "count": 9109,
      "max": [
        5.8442230224609375,
        8.691153526306152,
        9.836315155029297
      ],
      "min": [
        -5.844231128692627,
        -8.691153526306152,
        -9.836315155029297
      ],
      "type": "VEC3"
    },
    {
      "bufferView": 2,
      "byteOffset": 593052,
      "componentType": 5126,
      "count": 9109,
      "max": [
        0.9997878670692444,
        0.9991086721420288,
        0.9989094734191895
      ],
      "min": [
        -0.9999292492866516,
        -0.9996443390846252,
        -0.999696671962738
      ],
      "type": "VEC3"
    },
    {
      "bufferView": 1,
      "byteOffset": 161248,
      "componentType": 5126,
      "count": 9109,
      "max": [
        0.9989179968833923,
        0.5514299869537354
      ],
      "min": [
        0.0,
        0.016472000628709793
      ],
      "type": "VEC2"
    },
    {
      "bufferView": 0,
      "byteOffset": 378252,
      "componentType": 5125,
      "count": 52332,
      "type": "SCALAR"
    }
  ],
  "asset": {
    "extras": {
      "author": "cloud w (https://sketchfab.com/cloudw)",
      "license": "CC-BY-4.0 (http://creativecommons.org/licenses/by/4.0/)",
      "source": "https://sketchfab.com/3d-models/carrot-32b1e42427e543ccbdc38e6ad80bb99e",
      "title": "carrot"
    },
    "generator": "Sketchfab-15.12.0",
    "version": "2.0"
  },
  "bufferViews": [
    {
      "buffer": 0,
      "byteLength": 587580,
      "name": "floatBufferViews",
      "target": 34963
    },
    {
      "buffer": 0,
      "byteLength": 234120,
      "byteOffset": 587580,
      "byteStride": 8,
      "name": "floatBufferViews",
      "target": 34962
    },
    {
      "buffer": 0,
      "byteLength": 702360,
      "byteOffset": 821700,
      "byteStride": 12,
      "name": "floatBufferViews",
      "target": 34962
    }
  ],
  "buffers": [
    {
      "byteLength": 1524060,
      "uri": "scene.bin"
    }
  ],
  "extensionsRequired": [
    "KHR_materials_pbrSpecularGlossiness"
  ],
  "extensionsUsed": [
    "KHR_materials_pbrSpecularGlossiness"
  ],
  "images": [
    {
      "uri": "textures/carrot_ncl1_1_diffuse.jpeg"
    },
    {
      "uri": "textures/leaf_ncl1_1_diffuse.jpeg"
    }
  ],
  "materials": [
    {
      "doubleSided": true,
      "extensions": {
        "KHR_materials_pbrSpecularGlossiness": {
          "diffuseFactor": [
            1.0,
            1.0,
            1.0,
            1.0
          ],
          "diffuseTexture": {
            "index": 0
          },
          "glossinessFactor": 0.15632183908045977,
          "specularFactor": [
            0.18084291187739462,
            0.18084291187739462,
            0.18084291187739462
          ]
        }
      },
      "name": "carrot_ncl1_1"
    },
    {
      "doubleSided": true,
      "extensions": {
        "KHR_materials_pbrSpecularGlossiness": {
          "diffuseFactor": [
            1.0,
            1.0,
            1.0,
            1.0
          ],
          "diffuseTexture": {
            "index": 1
          },
          "glossinessFactor": 0.24411087451967212,
          "specularFactor": [
            0.0,
            0.0,
            0.0
          ]
        }
      },
      "name": "leaf_ncl1_1"
    }
  ],
  "meshes": [
    {
      "name": "leaf_ncl1_1",
      "primitives": [
        {
          "attributes": {
            "NORMAL": 1,
            "POSITION": 0,
            "TEXCOORD_0": 2
          },
          "indices": 3,
          "material": 1,
          "mode": 4
        }
      ]
    },
    {
      "name": "carrot_ncl1_1",
      "primitives": [
        {
          "attributes": {
            "NORMAL": 5,
            "POSITION": 4,
            "TEXCOORD_0": 6
          },
          "indices": 7,
          "material": 0,
          "mode": 4
        }
      ]
    }
  ],
  "nodes": [
    {
      "children": [
        1
      ],
      "matrix": [
        1.0,
        0.0,
        0.0,
        0.0,
        0.0,
        2.220446049250313e-16,
        -1.0,
        0.0,
        0.0,
        1.0,
        2.220446049250313e-16,
        0.0,
        0.0,
        0.0,
        0.0,
        1.0
      ],
      "name": "Sketchfab_model"
    },
    {
      "children": [
        2,
        4
      ],
      "matrix": [
        1.0,
        0.0,
        0.0,
        0.0,
        0.0,
        -4.371139006309477e-08,
        0.999999999999999,
        0.0,
        0.0,
        -0.999999999999999,
        -4.371139006309477e-08,
        0.0,
        0.0,
        0.0,
        0.0,
        1.0
      ],
      "name": "Collada visual scene group"
    },
    {
      "children": [
        3
      ],
      "matrix": [
        0.496553,
        0.007421,
        -0.867975,
        0.0,
        -0.675879,
        0.630732,
        -0.381266,
        0.0,
        0.54463,
        0.775965,
        0.318208,
        0.0,
        -0.158824,
        13.476511,
        -0.249651,
        1.0
      ],
      "name": "leaf"
    },
    {
      "mesh": 0,
      "name": "leaf_ncl1_1"
    },
    {
      "children": [
        5
      ],
      "matrix": [
        0.496553,
        0.007421,
        -0.867975,
        0.0,
        -0.675879,
        0.630732,
        -0.381266,
        0.0,
        0.54463,
        0.775965,
        0.318208,
        0.0,
        -0.158824,
        13.476511,
        -0.249651,
        1.0
      ],
      "name": "carrot"
    },
    {
      "mesh": 1,
      "name": "carrot_ncl1_1"
    }
  ],
  "samplers": [
    {
      "magFilter": 9729,
      "minFilter": 9987,
      "wrapS": 10497,
      "wrapT": 10497
    }
  ],
  "scene": 0,
  "scenes": [
    {
      "name": "Sketchfab_Scene",
      "nodes": [
        0
      ]
    }
  ],
  "textures": [
    {
      "sampler": 0,
      "source": 0
    },
    {
      "sampler": 0,
      "source": 1
    }
  ]
}
